<svg width="1920" height="1080" viewBox="0 0 1920 1080" fill="none" xmlns="http://www.w3.org/2000/svg">
<g clip-path="url(#clip0_57_5)">
<rect width="1080" height="1920" transform="matrix(0 -1 1 0 0 1080)" fill="#E4E4E6"/>
<g filter="url(#filter0_d_57_5)">
<circle cx="571.5" cy="185.5" r="132.5" fill="#F6F6F6"/>
</g>
<g filter="url(#filter1_d_57_5)">
<circle cx="1257" cy="143" r="187" fill="#F6F6F6"/>
</g>
<g filter="url(#filter2_d_57_5)">
<circle cx="761.5" cy="834.5" r="160.5" fill="#F6F6F6"/>
</g>
<g filter="url(#filter3_d_57_5)">
<circle cx="412.5" cy="744.5" r="129.5" fill="#F6F6F6"/>
</g>
<g filter="url(#filter4_d_57_5)">
<circle cx="140" cy="624" r="84" fill="#F6F6F6"/>
</g>
<g filter="url(#filter5_d_57_5)">
<circle cx="1117" cy="827" r="94" fill="#F6F6F6"/>
</g>
<g filter="url(#filter6_d_57_5)">
<circle cx="164" cy="874" r="77" fill="#F6F6F6"/>
</g>
<g filter="url(#filter7_d_57_5)">
<circle cx="1637" cy="507" r="79" fill="#F6F6F6"/>
</g>
<g filter="url(#filter8_d_57_5)">
<circle cx="303" cy="107" r="79" fill="#F6F6F6"/>
</g>
<g filter="url(#filter9_d_57_5)">
<circle cx="859" cy="143" r="79" fill="#F6F6F6"/>
</g>
<g filter="url(#filter10_d_57_5)">
<circle cx="1672.5" cy="840.5" r="154.5" fill="#F6F6F6"/>
</g>
<g filter="url(#filter11_d_57_5)">
<circle cx="1879" cy="581" r="122" fill="#F6F6F6"/>
</g>
<g filter="url(#filter12_d_57_5)">
<circle cx="1380" cy="713" r="122" fill="#F6F6F6"/>
</g>
<g filter="url(#filter13_d_57_5)">
<circle cx="91.5" cy="317.5" r="149.5" fill="#F6F6F6"/>
</g>
<g filter="url(#filter14_d_57_5)">
<circle cx="1688" cy="232" r="122" fill="#F6F6F6"/>
</g>
<g clip-path="url(#clip1_57_5)">
<mask id="mask0_57_5" style="mask-type:luminance" maskUnits="userSpaceOnUse" x="309" y="681" width="208" height="125">
<path d="M309.208 681.292H516.072V805.41H309.208V681.292Z" fill="white"/>
</mask>
<g mask="url(#mask0_57_5)">
<path fill-rule="evenodd" clip-rule="evenodd" d="M412.64 681.292C385.059 681.292 367.82 695.082 360.924 722.664C371.268 708.873 383.335 703.702 397.126 707.149C404.994 709.115 410.618 714.826 416.843 721.143C426.983 731.437 438.72 743.351 464.356 743.351C491.938 743.351 509.177 729.56 516.072 701.978C505.729 715.769 493.662 720.94 479.871 717.493C472.003 715.527 466.379 709.816 460.154 703.499C450.014 693.205 438.276 681.292 412.64 681.292ZM360.924 743.351C333.343 743.351 316.104 757.142 309.208 784.723C319.552 770.932 331.619 765.761 345.41 769.209C353.278 771.178 358.902 776.885 365.127 783.202C375.267 793.496 387.005 805.41 412.64 805.41C440.222 805.41 457.461 791.619 464.356 764.037C454.013 777.828 441.946 782.999 428.155 779.552C420.287 777.587 414.663 771.875 408.438 765.558C398.298 755.264 386.56 743.351 360.924 743.351Z" fill="#38BDF8"/>
</g>
</g>
<g clip-path="url(#clip2_57_5)">
<path d="M84.3362 208.171C83.8658 208.214 82.3688 208.364 81.0216 208.471C49.9497 211.272 20.8452 228.038 2.41169 253.806C-7.85293 268.134 -14.418 284.386 -16.8986 301.601C-17.7754 307.61 -17.8823 309.385 -17.8823 317.532C-17.8823 325.68 -17.7754 327.455 -16.8986 333.464C-10.9537 374.544 18.2791 409.058 57.9262 421.846C65.0259 424.135 72.5105 425.696 81.0216 426.637C84.3362 427 98.6639 427 101.979 426.637C116.67 425.011 129.116 421.376 141.39 415.11C143.272 414.148 143.636 413.891 143.379 413.677C143.208 413.549 135.189 402.793 125.566 389.791L108.073 366.161L86.1539 333.72C74.093 315.886 64.1705 301.301 64.085 301.301C63.9994 301.28 63.9139 315.693 63.8711 333.293C63.807 364.108 63.7856 365.348 63.4007 366.075C62.8447 367.123 62.417 367.551 61.5188 368.021C60.8345 368.363 60.2357 368.428 57.0067 368.428H53.3071L52.3234 367.807C51.6819 367.401 51.2114 366.867 50.8906 366.246L50.4416 365.284L50.4843 322.408L50.5485 279.51L51.2114 278.676C51.5536 278.227 52.2806 277.65 52.7939 277.372C53.6707 276.944 54.0128 276.901 57.7123 276.901C62.0748 276.901 62.8019 277.072 63.9353 278.313C64.256 278.655 76.1245 296.532 90.3239 318.067C104.523 339.601 123.941 369.005 133.478 383.44L150.8 409.679L151.676 409.101C159.439 404.054 167.651 396.869 174.152 389.385C187.988 373.496 196.905 354.121 199.899 333.464C200.776 327.455 200.882 325.68 200.882 317.532C200.882 309.385 200.776 307.61 199.899 301.601C193.954 260.521 164.721 226.006 125.074 213.218C118.081 210.951 110.639 209.39 102.299 208.449C100.246 208.235 86.1111 208 84.3362 208.171ZM129.116 274.335C130.142 274.848 130.976 275.832 131.275 276.859C131.447 277.415 131.489 289.304 131.447 316.099L131.382 354.549L124.603 344.156L117.803 333.763V305.813C117.803 287.743 117.889 277.586 118.017 277.094C118.359 275.896 119.108 274.955 120.134 274.399C121.011 273.95 121.332 273.908 124.689 273.908C127.854 273.908 128.41 273.95 129.116 274.335Z" fill="black"/>
<path d="M149.73 410.149C148.982 410.619 148.746 410.94 149.409 410.576C149.88 410.298 150.65 409.721 150.521 409.7C150.457 409.7 150.094 409.914 149.73 410.149ZM148.255 411.111C147.87 411.41 147.87 411.432 148.34 411.197C148.597 411.068 148.811 410.919 148.811 410.876C148.811 410.705 148.704 410.748 148.255 411.111ZM147.185 411.753C146.8 412.052 146.8 412.073 147.271 411.838C147.527 411.71 147.741 411.56 147.741 411.517C147.741 411.346 147.634 411.389 147.185 411.753ZM146.116 412.394C145.731 412.694 145.731 412.715 146.202 412.48C146.458 412.351 146.672 412.202 146.672 412.159C146.672 411.988 146.565 412.031 146.116 412.394ZM144.491 413.25C143.678 413.677 143.721 413.848 144.534 413.442C144.897 413.25 145.175 413.057 145.175 413.014C145.175 412.865 145.154 412.886 144.491 413.25Z" fill="black"/>
</g>
<circle cx="1256.5" cy="142.5" r="123.5" fill="#007ACC"/>
<path d="M1200.59 140.579V149.092H1227.74V226.387H1247.02V149.092H1274.17V140.735C1274.17 136.035 1274.17 132.222 1273.96 132.118C1273.96 131.961 1257.41 131.909 1237.3 131.909L1200.74 132.066V140.631L1200.59 140.579ZM1322.64 131.857C1327.97 133.11 1332.04 135.513 1335.7 139.325C1337.63 141.414 1340.5 145.07 1340.71 146.01C1340.71 146.324 1331.68 152.434 1326.19 155.829C1325.98 155.985 1325.15 155.098 1324.31 153.74C1321.6 149.875 1318.83 148.204 1314.49 147.89C1308.23 147.473 1304.05 150.763 1304.05 156.247C1304.05 157.918 1304.36 158.858 1304.99 160.216C1306.4 163.088 1309.01 164.812 1317.1 168.363C1332.04 174.787 1338.52 179.017 1342.43 185.076C1346.87 191.865 1347.87 202.519 1344.89 210.51C1341.55 219.232 1333.4 225.133 1321.75 227.066C1318.1 227.692 1309.74 227.588 1305.82 226.909C1297.47 225.342 1289.48 221.164 1284.57 215.785C1282.63 213.696 1278.93 208.107 1279.14 207.742L1281.12 206.488L1288.95 201.945L1294.86 198.498L1296.21 200.326C1297.94 203.041 1301.8 206.697 1304.05 207.951C1310.84 211.45 1319.92 210.98 1324.42 206.906C1326.35 205.13 1327.18 203.25 1327.18 200.639C1327.18 198.237 1326.82 197.14 1325.62 195.312C1323.95 193.014 1320.6 191.134 1311.2 186.956C1300.39 182.36 1295.8 179.435 1291.51 174.944C1289.06 172.228 1286.81 167.998 1285.77 164.498C1284.98 161.469 1284.72 154.053 1285.45 151.076C1287.7 140.631 1295.59 133.319 1306.87 131.23C1310.52 130.499 1319.14 130.812 1322.74 131.752L1322.64 131.857Z" fill="white"/>
<g clip-path="url(#clip3_57_5)">
<path d="M1687.05 507.01C1687.05 500.382 1678.75 494.102 1666.02 490.207C1668.96 477.237 1667.65 466.918 1661.9 463.615C1660.58 462.84 1659.03 462.473 1657.33 462.473V467.02C1658.27 467.02 1659.03 467.204 1659.66 467.55C1662.43 469.141 1663.64 475.198 1662.7 482.988C1662.47 484.904 1662.11 486.923 1661.66 488.983C1657.66 488.004 1653.3 487.25 1648.71 486.76C1645.96 482.988 1643.1 479.562 1640.22 476.564C1646.87 470.385 1653.11 467 1657.35 467V462.452C1651.75 462.452 1644.41 466.449 1636.98 473.383C1629.56 466.49 1622.22 462.534 1616.61 462.534V467.081C1620.83 467.081 1627.09 470.446 1633.74 476.584C1630.89 479.582 1628.03 482.988 1625.32 486.76C1620.71 487.25 1616.35 488.004 1612.35 489.003C1611.88 486.964 1611.53 484.986 1611.29 483.09C1610.33 475.3 1611.51 469.243 1614.26 467.632C1614.88 467.265 1615.67 467.102 1616.61 467.102V462.554C1614.9 462.554 1613.35 462.921 1612 463.696C1606.27 467 1604.99 477.298 1607.94 490.227C1595.26 494.142 1587 500.403 1587 507.01C1587 513.638 1595.3 519.919 1608.02 523.814C1605.09 536.783 1606.39 547.102 1612.14 550.406C1613.47 551.181 1615.02 551.548 1616.73 551.548C1622.34 551.548 1629.68 547.551 1637.1 540.617C1644.53 547.51 1651.87 551.466 1657.48 551.466C1659.19 551.466 1660.74 551.099 1662.09 550.324C1667.82 547.021 1669.1 536.722 1666.14 523.793C1678.79 519.898 1687.05 513.617 1687.05 507.01ZM1660.5 493.408C1659.74 496.039 1658.8 498.751 1657.74 501.463C1656.91 499.832 1656.03 498.2 1655.07 496.569C1654.13 494.938 1653.13 493.347 1652.13 491.797C1655.03 492.225 1657.82 492.756 1660.5 493.408ZM1651.16 515.126C1649.56 517.879 1647.93 520.49 1646.24 522.916C1643.2 523.181 1640.12 523.324 1637.02 523.324C1633.94 523.324 1630.86 523.181 1627.85 522.937C1626.15 520.51 1624.5 517.92 1622.91 515.188C1621.36 512.516 1619.95 509.804 1618.67 507.071C1619.93 504.339 1621.36 501.606 1622.89 498.935C1624.48 496.182 1626.11 493.571 1627.81 491.145C1630.84 490.88 1633.92 490.737 1637.02 490.737C1640.1 490.737 1643.18 490.88 1646.2 491.124C1647.89 493.551 1649.54 496.141 1651.13 498.873C1652.68 501.545 1654.09 504.257 1655.38 506.99C1654.09 509.722 1652.68 512.455 1651.16 515.126ZM1657.74 512.475C1658.84 515.208 1659.78 517.941 1660.56 520.592C1657.88 521.244 1655.07 521.795 1652.15 522.223C1653.15 520.653 1654.15 519.042 1655.09 517.39C1656.03 515.759 1656.91 514.107 1657.74 512.475ZM1637.06 534.234C1635.17 532.277 1633.27 530.095 1631.39 527.709C1633.23 527.79 1635.11 527.851 1637 527.851C1638.92 527.851 1640.82 527.811 1642.67 527.709C1640.84 530.095 1638.94 532.277 1637.06 534.234ZM1621.89 522.223C1619 521.795 1616.2 521.265 1613.53 520.612C1614.29 517.981 1615.22 515.269 1616.28 512.557C1617.12 514.188 1618 515.82 1618.96 517.451C1619.91 519.083 1620.89 520.673 1621.89 522.223ZM1636.96 479.786C1638.86 481.744 1640.76 483.926 1642.63 486.312C1640.8 486.23 1638.92 486.169 1637.02 486.169C1635.11 486.169 1633.21 486.21 1631.35 486.312C1633.19 483.926 1635.09 481.744 1636.96 479.786ZM1621.87 491.797C1620.87 493.367 1619.87 494.978 1618.93 496.63C1618 498.262 1617.12 499.893 1616.28 501.524C1615.18 498.792 1614.24 496.059 1613.47 493.408C1616.14 492.776 1618.96 492.225 1621.87 491.797ZM1603.42 517.329C1596.2 514.25 1591.53 510.212 1591.53 507.01C1591.53 503.808 1596.2 499.75 1603.42 496.691C1605.17 495.937 1607.09 495.264 1609.06 494.632C1610.23 498.629 1611.76 502.789 1613.65 507.051C1611.78 511.293 1610.27 515.432 1609.13 519.409C1607.11 518.777 1605.19 518.083 1603.42 517.329ZM1614.39 546.47C1611.61 544.879 1610.41 538.823 1611.35 531.033C1611.57 529.116 1611.94 527.097 1612.39 525.037C1616.39 526.016 1620.75 526.771 1625.34 527.26C1628.09 531.033 1630.95 534.459 1633.82 537.456C1627.17 543.635 1620.93 547.021 1616.69 547.021C1615.77 547 1615 546.817 1614.39 546.47ZM1662.76 530.931C1663.72 538.721 1662.53 544.777 1659.78 546.388C1659.17 546.755 1658.37 546.919 1657.44 546.919C1653.21 546.919 1646.95 543.554 1640.31 537.416C1643.16 534.418 1646.02 531.012 1648.73 527.24C1653.34 526.75 1657.7 525.996 1661.7 524.996C1662.17 527.056 1662.53 529.034 1662.76 530.931ZM1670.61 517.329C1668.86 518.083 1666.94 518.756 1664.96 519.388C1663.8 515.391 1662.27 511.231 1660.37 506.969C1662.25 502.728 1663.76 498.588 1664.9 494.611C1666.92 495.244 1668.84 495.937 1670.63 496.691C1677.85 499.771 1682.52 503.808 1682.52 507.01C1682.5 510.212 1677.83 514.27 1670.61 517.329Z" fill="#61DAFB"/>
<path d="M1637 516.33C1642.15 516.33 1646.32 512.157 1646.32 507.01C1646.32 501.863 1642.15 497.691 1637 497.691C1631.86 497.691 1627.68 501.863 1627.68 507.01C1627.68 512.157 1631.86 516.33 1637 516.33Z" fill="#61DAFB"/>
</g>
<path d="M1112.59 772.204C1115.39 770.602 1119.03 770.595 1121.83 772.204C1135.9 780.153 1149.97 788.089 1164.03 796.043C1166.68 797.533 1168.45 800.477 1168.42 803.525V851.348C1168.44 854.522 1166.5 857.536 1163.71 858.993C1149.68 866.898 1135.67 874.812 1121.65 882.717C1118.8 884.35 1115.08 884.225 1112.31 882.457C1108.11 880.021 1103.9 877.596 1099.69 875.162C1098.83 874.649 1097.86 874.242 1097.26 873.409C1097.79 872.686 1098.75 872.596 1099.53 872.281C1101.29 871.723 1102.9 870.827 1104.51 869.958C1104.92 869.679 1105.42 869.786 1105.81 870.036C1109.4 872.097 1112.96 874.217 1116.57 876.259C1117.34 876.703 1118.12 876.113 1118.78 875.746C1132.53 867.97 1146.31 860.223 1160.07 852.445C1160.58 852.199 1160.86 851.658 1160.82 851.1C1160.83 835.324 1160.82 819.546 1160.82 803.77C1160.88 803.137 1160.51 802.554 1159.94 802.295C1145.97 794.426 1132 786.546 1118.03 778.675C1117.79 778.508 1117.5 778.419 1117.21 778.419C1116.92 778.418 1116.63 778.507 1116.39 778.672C1102.42 786.546 1088.46 794.434 1074.49 802.302C1073.91 802.562 1073.53 803.134 1073.6 803.77C1073.6 819.546 1073.6 835.324 1073.6 851.102C1073.58 851.375 1073.63 851.648 1073.77 851.886C1073.91 852.123 1074.11 852.313 1074.36 852.43C1078.09 854.544 1081.82 856.643 1085.55 858.75C1087.65 859.881 1090.23 860.553 1092.55 859.687C1094.59 858.954 1096.02 856.869 1095.98 854.699C1096 839.016 1095.97 823.33 1096 807.649C1095.95 806.952 1096.61 806.377 1097.28 806.443C1099.08 806.431 1100.87 806.418 1102.66 806.447C1103.41 806.431 1103.92 807.18 1103.83 807.882C1103.82 823.665 1103.85 839.448 1103.82 855.231C1103.82 859.437 1102.1 864.014 1098.2 866.072C1093.41 868.555 1087.49 868.028 1082.75 865.648C1078.65 863.602 1074.74 861.187 1070.71 858.995C1067.92 857.547 1065.98 854.52 1066 851.348V803.525C1065.97 800.414 1067.81 797.416 1070.54 795.948C1084.56 788.036 1098.57 780.119 1112.59 772.204Z" fill="#8CC84B"/>
<path d="M1124.82 805.331C1130.93 804.938 1137.48 805.098 1142.98 808.11C1147.24 810.418 1149.6 815.262 1149.68 819.995C1149.56 820.633 1148.89 820.985 1148.28 820.942C1146.51 820.939 1144.73 820.966 1142.96 820.93C1142.21 820.958 1141.77 820.265 1141.68 819.599C1141.17 817.335 1139.93 815.092 1137.8 814C1134.53 812.362 1130.73 812.445 1127.17 812.479C1124.56 812.617 1121.76 812.843 1119.56 814.374C1117.86 815.534 1117.35 817.876 1117.95 819.762C1118.52 821.116 1120.08 821.553 1121.36 821.956C1128.73 823.883 1136.54 823.692 1143.77 826.228C1146.76 827.261 1149.69 829.271 1150.71 832.404C1152.05 836.603 1151.46 841.623 1148.48 844.994C1146.05 847.768 1142.53 849.277 1139.01 850.097C1134.32 851.141 1129.47 851.168 1124.71 850.704C1120.24 850.195 1115.59 849.02 1112.14 845.974C1109.18 843.411 1107.74 839.419 1107.89 835.565C1107.92 834.914 1108.57 834.46 1109.19 834.514C1110.98 834.499 1112.76 834.494 1114.55 834.516C1115.26 834.465 1115.79 835.082 1115.83 835.754C1116.16 837.912 1116.97 840.176 1118.85 841.455C1122.48 843.797 1127.04 843.637 1131.2 843.702C1134.64 843.55 1138.51 843.503 1141.32 841.227C1142.8 839.929 1143.24 837.756 1142.84 835.888C1142.4 834.31 1140.75 833.575 1139.34 833.094C1132.06 830.793 1124.17 831.628 1116.96 829.026C1114.04 827.992 1111.21 826.038 1110.09 823.034C1108.52 818.782 1109.24 813.522 1112.54 810.265C1115.76 807.025 1120.4 805.778 1124.82 805.331Z" fill="#8CC84B"/>
<g clip-path="url(#clip4_57_5)">
<path d="M1301 712.5C1301 690.831 1308.67 672.33 1324 656.998C1339.33 641.666 1357.83 634 1379.5 634C1401.17 634 1419.67 641.666 1435 656.998C1450.33 672.33 1458 690.831 1458 712.5C1458 734.169 1450.33 752.67 1435 768.002C1419.67 783.334 1401.17 791 1379.5 791C1357.83 791 1339.33 783.334 1324 768.002C1308.67 752.67 1301 734.169 1301 712.5ZM1309.59 712.5C1309.59 731.716 1316.43 748.172 1330.13 761.869C1343.83 775.566 1360.28 782.414 1379.5 782.414C1398.72 782.414 1415.17 775.566 1428.87 761.869C1442.57 748.173 1449.41 731.716 1449.41 712.5C1449.41 693.284 1442.57 676.827 1428.87 663.131C1415.17 649.434 1398.72 642.586 1379.5 642.586C1360.28 642.586 1343.83 649.434 1330.13 663.131C1316.43 676.827 1309.59 693.284 1309.59 712.5ZM1331.66 729.365C1331.26 728.956 1331.26 728.547 1331.66 728.139C1332.48 727.321 1333.5 727.014 1334.73 727.219C1335.96 727.423 1336.67 727.628 1336.88 727.832C1338.31 728.445 1339.89 729.825 1341.63 731.972C1343.37 734.118 1344.75 735.6 1345.77 736.418C1350.68 740.506 1355.68 740.813 1360.79 737.338C1361.2 735.907 1361.87 734.68 1362.79 733.658C1363.71 732.636 1364.58 731.92 1365.39 731.511C1366.21 731.103 1367.64 730.489 1369.69 729.672C1362.94 729.058 1357.47 727.883 1353.28 726.145C1349.09 724.408 1345.77 722.21 1343.32 719.552C1340.05 715.873 1338.05 711.069 1337.34 705.14C1336.62 699.212 1337.08 693.795 1338.72 688.888C1339.94 685.822 1341.68 683.062 1343.93 680.609C1342.29 675.499 1342.6 669.672 1344.85 663.131C1351.39 663.54 1357.32 665.788 1362.63 669.877C1372.86 667.219 1383.49 667.117 1394.52 669.57C1395.96 668.548 1398.15 667.27 1401.12 665.737C1404.08 664.204 1407.81 663.335 1412.31 663.131C1413.13 665.379 1413.69 668.037 1414 671.103C1414.3 674.17 1414.15 677.032 1413.54 679.689C1418.24 684.595 1420.69 691.137 1420.9 699.314C1420.9 705.856 1419.77 711.273 1417.52 715.566C1415.27 719.859 1411.29 723.436 1405.56 726.298C1401.68 728.138 1396.57 729.262 1390.23 729.671C1393.09 731.102 1395.19 732.584 1396.52 734.118C1397.85 735.651 1398.72 738.053 1399.12 741.324V750.983L1399.43 760.335C1400.04 761.358 1400.76 762.227 1401.58 762.942C1402.4 763.658 1403.11 764.169 1403.72 764.475C1404.34 764.782 1404.54 765.242 1404.34 765.855C1404.13 766.469 1403.32 766.775 1401.88 766.775C1398.41 766.775 1395.65 765.549 1393.61 763.095C1392.99 762.073 1392.69 760.847 1392.69 759.416V744.697C1392.69 743.062 1392.28 741.886 1391.46 741.171C1390.64 740.455 1389.82 739.995 1389.01 739.791V759.109C1389.01 762.584 1389.41 764.833 1390.23 765.855C1391.05 766.877 1391.56 767.899 1391.77 768.921C1391.97 769.126 1391.82 769.279 1391.31 769.381C1390.79 769.483 1389.93 769.33 1388.7 768.921C1386.04 768.308 1384.2 766.928 1383.18 764.782C1382.16 762.635 1381.65 760.335 1381.65 757.882V738.871H1377.66V757.883C1377.66 760.336 1377.15 762.687 1376.13 764.935C1374.7 767.798 1372.04 769.331 1368.15 769.535C1367.54 769.331 1367.23 769.126 1367.23 768.922C1367.44 768.717 1368.05 767.695 1369.07 765.855C1369.28 765.447 1369.53 764.629 1369.84 763.402C1370.15 762.176 1370.3 760.745 1370.3 759.109V739.791C1369.48 739.995 1368.72 740.455 1368 741.171C1367.29 741.887 1366.93 743.062 1366.93 744.697V759.416C1366.93 760.847 1366.62 762.074 1366.01 763.096C1364.17 765.549 1361.41 766.776 1357.73 766.776C1356.3 766.776 1355.48 766.469 1355.28 765.856C1355.07 765.447 1355.12 765.089 1355.43 764.782C1355.74 764.476 1356.2 764.118 1356.81 763.709C1357.42 763.3 1357.83 762.993 1358.04 762.789C1358.85 762.176 1359.47 761.358 1359.88 760.336C1360.49 759.518 1360.64 757.372 1360.34 753.897C1360.03 750.421 1359.98 748.173 1360.18 747.15C1354.87 748.99 1349.45 748.07 1343.93 744.391C1342.29 742.755 1340.66 740.404 1339.02 737.338C1337.8 735.089 1335.34 732.432 1331.66 729.365Z" fill="black"/>
</g>
<g clip-path="url(#clip5_57_5)">
<path d="M539.256 282.461C557.055 282.461 571.5 268.016 571.5 250.217V217.974H539.256C521.458 217.974 507.013 232.419 507.013 250.217C507.013 268.016 521.458 282.461 539.256 282.461Z" fill="#0ACF83"/>
<path d="M507.013 185.731C507.013 167.933 521.458 153.488 539.256 153.488H571.5V217.975H539.256C521.458 217.975 507.013 203.53 507.013 185.731Z" fill="#A259FF"/>
<path d="M507.013 121.244C507.013 103.445 521.458 89 539.256 89H571.5V153.487H539.256C521.458 153.487 507.013 139.042 507.013 121.244Z" fill="#F24E1E"/>
<path d="M571.5 89H603.743C621.542 89 635.987 103.445 635.987 121.244C635.987 139.042 621.542 153.487 603.743 153.487H571.5V89Z" fill="#FF7262"/>
<path d="M635.987 185.731C635.987 203.53 621.542 217.975 603.743 217.975C585.945 217.975 571.5 203.53 571.5 185.731C571.5 167.933 585.945 153.488 603.743 153.488C621.542 153.488 635.987 167.933 635.987 185.731Z" fill="#1ABCFE"/>
</g>
<g clip-path="url(#clip6_57_5)">
<path d="M288.84 135.48C288.84 135.48 284.869 137.789 291.666 138.571C299.901 139.51 304.11 139.376 313.185 137.658C313.185 137.658 315.571 139.154 318.903 140.45C298.559 149.169 272.861 139.945 288.84 135.48ZM286.354 124.102C286.354 124.102 281.9 127.399 288.702 128.103C297.499 129.01 304.446 129.084 316.467 126.77C316.467 126.77 318.13 128.455 320.744 129.377C296.148 136.57 268.751 129.944 286.354 124.102Z" fill="#5382A1"/>
<path d="M307.311 104.802C312.323 110.573 305.994 115.766 305.994 115.766C305.994 115.766 318.722 109.196 312.876 100.968C307.417 93.295 303.23 89.4821 325.895 76.3374C325.895 76.3374 290.318 85.223 307.311 104.802Z" fill="#E76F00"/>
<path d="M334.217 143.896C334.217 143.896 337.156 146.317 330.981 148.19C319.238 151.748 282.106 152.822 271.791 148.332C268.083 146.719 275.037 144.481 277.224 144.011C279.505 143.516 280.809 143.608 280.809 143.608C276.685 140.703 254.155 149.312 269.365 151.777C310.843 158.504 344.976 148.749 334.217 143.896ZM290.749 112.314C290.749 112.314 271.862 116.8 284.061 118.429C289.212 119.118 299.48 118.962 309.044 118.161C316.861 117.502 324.709 116.1 324.709 116.1C324.709 116.1 321.953 117.28 319.959 118.642C300.779 123.686 263.727 121.339 274.394 116.179C283.415 111.819 290.749 112.314 290.749 112.314ZM324.631 131.252C344.129 121.121 335.114 111.384 328.822 112.696C327.28 113.017 326.592 113.295 326.592 113.295C326.592 113.295 327.165 112.398 328.258 112.01C340.706 107.634 350.279 124.918 324.24 131.763C324.24 131.763 324.542 131.494 324.631 131.252Z" fill="#5382A1"/>
<path d="M312.876 55.1116C312.876 55.1116 323.675 65.9136 302.635 82.523C285.764 95.8471 298.788 103.444 302.628 112.124C292.78 103.238 285.553 95.4165 290.401 88.1368C297.518 77.45 317.233 72.2693 312.876 55.1116Z" fill="#E76F00"/>
<path d="M292.665 158.707C311.38 159.905 340.119 158.042 340.8 149.187C340.8 149.187 339.492 152.544 325.333 155.21C309.359 158.216 289.658 157.865 277.973 155.938C277.973 155.938 280.365 157.918 292.665 158.707Z" fill="#5382A1"/>
</g>
<circle cx="761.5" cy="834.5" r="108.5" fill="#F0DB4F"/>
<path d="M842.404 877.589C841.085 869.362 835.721 862.456 819.833 856.012C814.315 853.475 808.162 851.659 806.329 847.477C805.677 845.043 805.592 843.672 806.003 842.198C807.185 837.417 812.892 835.926 817.417 837.297C820.33 838.274 823.09 840.519 824.752 844.101C832.533 839.062 832.516 839.096 837.949 835.635C835.96 832.55 834.898 831.127 833.595 829.808C828.917 824.58 822.541 821.89 812.344 822.095C810.579 822.318 808.797 822.558 807.031 822.781C801.941 824.066 797.091 826.74 794.246 830.322C785.711 840.005 788.145 856.954 798.531 863.93C808.762 871.608 823.792 873.356 825.712 880.537C827.58 889.328 819.251 892.173 810.973 891.162C804.872 889.894 801.479 886.792 797.811 881.154C791.059 885.061 791.059 885.061 784.118 889.054C785.763 892.653 787.494 894.281 790.253 897.401C803.312 910.648 835.995 909.997 841.856 889.945C842.096 889.26 843.673 884.667 842.404 877.589ZM774.88 823.158H758.016C758.016 837.725 757.948 852.19 757.948 866.757C757.948 876.029 758.428 884.53 756.919 887.135C754.452 892.259 748.059 891.625 745.146 890.631C742.181 889.174 740.672 887.1 738.924 884.17C738.444 883.33 738.085 882.679 737.964 882.627C733.389 885.421 728.83 888.231 724.254 891.025C726.533 895.704 729.892 899.765 734.194 902.405C740.621 906.261 749.258 907.443 758.29 905.369C764.169 903.656 769.242 900.108 771.898 894.71C775.737 887.632 774.914 879.063 774.88 869.585C774.966 854.127 774.88 838.668 774.88 823.158Z" fill="#323330"/>
<path d="M218.371 864.431C218.064 864.178 215.3 862.106 209.363 862.106C207.827 862.106 206.241 862.258 204.705 862.51C203.579 854.779 197.079 851.04 196.823 850.837L195.237 849.928L194.213 851.393C192.933 853.364 191.961 855.588 191.398 857.862C190.323 862.258 190.988 866.402 193.24 869.939C190.528 871.455 186.126 871.809 185.205 871.859H112.526C110.632 871.859 109.097 873.375 109.097 875.245C108.995 881.511 110.069 887.777 112.27 893.689C114.778 900.157 118.515 904.958 123.326 907.889C128.751 911.173 137.605 913.043 147.586 913.043C152.09 913.043 156.594 912.639 161.047 911.83C167.24 910.718 173.177 908.596 178.654 905.514C183.142 902.945 187.186 899.669 190.63 895.811C196.414 889.394 199.843 882.218 202.351 875.851H203.374C209.67 875.851 213.56 873.375 215.709 871.253C217.142 869.939 218.217 868.322 218.985 866.503L219.446 865.189L218.371 864.431Z" fill="#0091E2"/>
<path d="M119.282 869.787H129.007C129.467 869.787 129.877 869.433 129.877 868.928V860.337C129.877 859.882 129.519 859.478 129.007 859.478H119.282C118.822 859.478 118.412 859.832 118.412 860.337V868.928C118.463 869.433 118.822 869.787 119.282 869.787V869.787ZM132.692 869.787H142.417C142.877 869.787 143.287 869.433 143.287 868.928V860.337C143.287 859.882 142.928 859.478 142.417 859.478H132.692C132.231 859.478 131.822 859.832 131.822 860.337V868.928C131.873 869.433 132.231 869.787 132.692 869.787M146.357 869.787H156.082C156.542 869.787 156.952 869.433 156.952 868.928V860.337C156.952 859.882 156.594 859.478 156.082 859.478H146.357C145.897 859.478 145.487 859.832 145.487 860.337V868.928C145.487 869.433 145.845 869.787 146.357 869.787ZM159.818 869.787H169.543C170.003 869.787 170.413 869.433 170.413 868.928V860.337C170.413 859.882 170.055 859.478 169.543 859.478H159.818C159.358 859.478 158.948 859.832 158.948 860.337V868.928C158.948 869.433 159.358 869.787 159.818 869.787ZM132.692 857.507H142.416C142.877 857.507 143.286 857.103 143.286 856.648V848.058C143.286 847.603 142.928 847.199 142.416 847.199H132.692C132.231 847.199 131.822 847.552 131.822 848.058V856.648C131.873 857.103 132.231 857.507 132.692 857.507ZM146.357 857.507H156.082C156.542 857.507 156.952 857.103 156.952 856.648V848.058C156.952 847.603 156.594 847.199 156.082 847.199H146.357C145.897 847.199 145.487 847.552 145.487 848.058V856.648C145.487 857.103 145.845 857.507 146.357 857.507ZM159.818 857.507H169.543C170.003 857.507 170.413 857.103 170.413 856.648V848.058C170.413 847.603 170.003 847.199 169.543 847.199H159.818C159.358 847.199 158.948 847.552 158.948 848.058V856.648C158.948 857.103 159.358 857.507 159.818 857.507ZM159.818 845.177H169.543C170.003 845.177 170.413 844.824 170.413 844.318V835.728C170.413 835.273 170.003 834.869 169.543 834.869H159.818C159.358 834.869 158.948 835.222 158.948 835.728V844.318C158.948 844.773 159.358 845.177 159.818 845.177ZM173.381 869.787H183.106C183.567 869.787 183.976 869.433 183.976 868.928V860.337C183.976 859.882 183.618 859.478 183.106 859.478H173.381C172.921 859.478 172.511 859.832 172.511 860.337V868.928C172.563 869.433 172.921 869.787 173.381 869.787" fill="#0091E2"/>
<path d="M1764.48 859.361C1763.37 855.998 1760.46 853.656 1756.69 853.094C1754.92 852.829 1752.89 852.942 1750.49 853.437C1746.3 854.302 1743.19 854.631 1740.92 854.695C1749.48 840.237 1756.44 823.751 1760.45 808.231C1766.93 783.137 1763.47 771.705 1759.42 766.534C1748.71 752.847 1733.08 745.494 1714.23 745.269C1704.17 745.146 1695.34 747.132 1690.74 748.56C1686.45 747.803 1681.84 747.381 1677 747.303C1667.93 747.158 1659.92 749.135 1653.07 753.198C1649.28 751.917 1643.2 750.109 1636.17 748.956C1619.65 746.244 1606.33 748.357 1596.59 755.239C1584.79 763.571 1579.32 778.048 1580.33 798.268C1580.65 804.687 1584.25 824.219 1589.9 842.743C1593.15 853.39 1596.61 862.232 1600.2 869.025C1605.28 878.657 1610.72 884.329 1616.83 886.366C1620.25 887.506 1626.47 888.305 1633.01 882.858C1633.84 883.862 1634.94 884.86 1636.41 885.786C1638.28 886.962 1640.56 887.922 1642.83 888.492C1651.04 890.543 1658.72 890.03 1665.28 887.155C1665.32 888.321 1665.35 889.435 1665.38 890.397C1665.42 891.958 1665.46 893.488 1665.52 894.919C1665.91 904.593 1666.57 912.116 1668.52 917.38C1668.62 917.669 1668.77 918.11 1668.92 918.579C1669.89 921.558 1671.52 926.545 1675.66 930.45C1679.95 934.496 1685.13 935.737 1689.88 935.737C1692.26 935.737 1694.53 935.425 1696.52 934.998C1703.63 933.475 1711.7 931.156 1717.53 922.845C1723.05 914.989 1725.73 903.156 1726.22 884.512C1726.28 883.984 1726.34 883.481 1726.4 883.001L1726.51 882.016L1727.81 882.13L1728.15 882.153C1735.38 882.482 1744.23 880.948 1749.66 878.424C1753.96 876.432 1767.72 869.168 1764.48 859.361Z" fill="black"/>
<path d="M1752.1 861.269C1730.59 865.707 1729.11 858.423 1729.11 858.423C1751.83 824.717 1761.32 781.932 1753.13 771.461C1730.77 742.897 1692.07 756.406 1691.43 756.756L1691.22 756.793C1686.97 755.911 1682.21 755.386 1676.87 755.298C1667.13 755.139 1659.75 757.85 1654.14 762.1C1654.14 762.1 1585.11 733.659 1588.32 797.868C1589 811.528 1607.9 901.224 1630.43 874.132C1638.67 864.225 1646.63 855.848 1646.63 855.848C1650.58 858.474 1655.32 859.814 1660.28 859.333L1660.66 859.006C1660.54 860.236 1660.6 861.439 1660.82 862.863C1655.01 869.35 1656.72 870.489 1645.11 872.878C1633.37 875.299 1640.27 879.607 1644.77 880.734C1650.23 882.099 1662.87 884.034 1671.4 872.084L1671.06 873.447C1673.34 875.27 1674.93 885.299 1674.67 894.392C1674.4 903.483 1674.22 909.726 1676.01 914.602C1677.8 919.477 1679.59 930.448 1694.85 927.179C1707.6 924.446 1714.2 917.366 1715.12 905.556C1715.78 897.16 1717.25 898.401 1717.35 890.895L1718.53 887.341C1719.89 875.96 1718.75 872.288 1726.6 873.996L1728.51 874.163C1734.29 874.426 1741.86 873.233 1746.3 871.169C1755.86 866.732 1761.53 859.322 1752.1 861.269H1752.1Z" fill="#336791"/>
<path d="M1658.18 803.976C1656.25 803.706 1654.49 803.956 1653.6 804.629C1653.1 805.007 1652.95 805.446 1652.91 805.747C1652.79 806.547 1653.35 807.431 1653.7 807.886C1654.67 809.177 1656.09 810.064 1657.5 810.259C1657.71 810.288 1657.91 810.301 1658.11 810.301C1660.46 810.301 1662.59 808.473 1662.78 807.124C1663.02 805.434 1660.56 804.307 1658.18 803.976ZM1722.41 804.03C1722.23 802.705 1719.87 802.328 1717.63 802.639C1715.4 802.95 1713.23 803.958 1713.41 805.286C1713.56 806.318 1715.42 808.08 1717.63 808.08C1717.82 808.08 1718 808.068 1718.19 808.041C1719.67 807.837 1720.75 806.902 1721.26 806.363C1722.04 805.541 1722.49 804.625 1722.41 804.03Z" fill="white"/>
<path d="M1759.26 860.764C1758.44 858.283 1755.8 857.485 1751.42 858.391C1738.39 861.079 1733.73 859.217 1732.19 858.089C1742.32 842.666 1750.65 824.022 1755.14 806.628C1757.27 798.388 1758.44 790.736 1758.54 784.499C1758.65 777.653 1757.48 772.622 1755.08 769.549C1745.38 757.161 1731.15 750.516 1713.93 750.333C1702.09 750.2 1692.08 753.231 1690.14 754.083C1686.06 753.067 1681.6 752.444 1676.76 752.364C1667.87 752.22 1660.18 754.348 1653.82 758.687C1651.06 757.658 1643.92 755.206 1635.18 753.799C1620.08 751.369 1608.08 753.21 1599.52 759.276C1589.31 766.515 1584.59 779.454 1585.5 797.733C1585.81 803.883 1589.31 822.801 1594.84 840.919C1602.12 864.766 1610.04 878.265 1618.36 881.042C1619.34 881.367 1620.46 881.594 1621.7 881.594C1624.73 881.594 1628.46 880.226 1632.33 875.568C1637.06 869.9 1641.94 864.369 1646.99 858.983C1650.26 860.74 1653.86 861.721 1657.53 861.819C1657.54 861.915 1657.55 862.012 1657.56 862.107C1656.93 862.862 1656.31 863.628 1655.7 864.404C1653.15 867.638 1652.62 868.312 1644.42 870C1642.09 870.482 1635.89 871.759 1635.8 876.102C1635.7 880.848 1643.13 882.841 1643.97 883.052C1646.92 883.79 1649.76 884.154 1652.47 884.154C1659.05 884.154 1664.85 881.989 1669.48 877.802C1669.33 894.719 1670.04 911.39 1672.07 916.469C1673.74 920.627 1677.8 930.789 1690.64 930.788C1692.52 930.788 1694.59 930.569 1696.88 930.08C1710.27 927.208 1716.09 921.286 1718.34 908.23C1719.55 901.253 1721.61 884.592 1722.59 875.655C1724.64 876.295 1727.28 876.588 1730.13 876.588C1736.09 876.588 1742.96 875.322 1747.27 873.322C1752.11 871.074 1760.85 865.557 1759.26 860.764ZM1727.36 800.373C1727.31 803.012 1726.95 805.407 1726.56 807.907C1726.15 810.596 1725.72 813.376 1725.61 816.751C1725.51 820.035 1725.92 823.449 1726.31 826.752C1727.12 833.422 1727.94 840.288 1724.75 847.064C1724.23 846.127 1723.75 845.158 1723.34 844.164C1722.95 843.204 1722.09 841.663 1720.9 839.531C1716.27 831.229 1705.43 811.788 1710.98 803.855C1712.63 801.494 1716.83 799.066 1727.36 800.373ZM1714.59 755.676C1730.03 756.016 1742.23 761.79 1750.88 772.835C1757.51 781.307 1750.21 819.855 1729.07 853.111C1728.86 852.841 1728.65 852.572 1728.43 852.303L1728.16 851.969C1733.63 842.95 1732.56 834.027 1731.61 826.116C1731.22 822.869 1730.85 819.803 1730.94 816.922C1731.04 813.869 1731.44 811.25 1731.83 808.719C1732.31 805.598 1732.8 802.37 1732.67 798.564C1732.77 798.165 1732.81 797.693 1732.75 797.133C1732.41 793.483 1728.24 782.561 1719.75 772.675C1715.11 767.267 1708.33 761.216 1699.08 757.134C1703.06 756.309 1708.5 755.54 1714.59 755.676ZM1628.23 872.16C1623.96 877.292 1621.02 876.308 1620.05 875.985C1613.73 873.878 1606.4 860.53 1599.94 839.363C1594.35 821.048 1591.09 802.63 1590.83 797.466C1590.01 781.133 1593.97 769.75 1602.6 763.633C1616.63 753.678 1639.71 759.636 1648.98 762.658C1648.85 762.79 1648.71 762.913 1648.58 763.047C1633.36 778.415 1633.72 804.672 1633.76 806.277C1633.76 806.896 1633.81 807.773 1633.88 808.979C1634.15 813.395 1634.63 821.615 1633.33 830.923C1632.12 839.573 1634.79 848.039 1640.64 854.151C1641.25 854.777 1641.88 855.373 1642.54 855.936C1639.93 858.729 1634.26 864.904 1628.23 872.16ZM1644.49 850.462C1639.77 845.536 1637.63 838.684 1638.61 831.661C1639.99 821.828 1639.48 813.264 1639.21 808.664C1639.17 808.02 1639.13 807.455 1639.11 807.011C1641.34 805.039 1651.64 799.52 1658.99 801.203C1662.34 801.971 1664.38 804.254 1665.23 808.18C1669.63 828.51 1665.81 836.984 1662.75 843.793C1662.12 845.196 1661.52 846.522 1661.01 847.893L1660.61 848.954C1659.62 851.635 1658.68 854.128 1658.11 856.495C1653.09 856.48 1648.21 854.336 1644.49 850.462V850.462ZM1645.26 877.88C1643.8 877.514 1642.48 876.878 1641.71 876.35C1642.35 876.047 1643.5 875.633 1645.5 875.222C1655.15 873.236 1656.64 871.834 1659.89 867.703C1660.64 866.755 1661.48 865.681 1662.65 864.374L1662.65 864.372C1664.4 862.419 1665.2 862.75 1666.64 863.351C1667.81 863.835 1668.96 865.305 1669.42 866.923C1669.64 867.687 1669.89 869.136 1669.08 870.265C1662.28 879.782 1652.38 879.66 1645.26 877.88ZM1695.76 924.867C1683.95 927.396 1679.78 921.373 1677.02 914.489C1675.24 910.044 1674.37 890.001 1674.99 867.867C1675 867.572 1674.96 867.288 1674.88 867.021C1674.8 866.492 1674.69 865.969 1674.55 865.456C1673.62 862.236 1671.38 859.542 1668.68 858.425C1667.61 857.981 1665.65 857.168 1663.29 857.772C1663.79 855.697 1664.66 853.354 1665.61 850.817L1666.01 849.75C1666.45 848.547 1667.02 847.3 1667.61 845.981C1670.82 838.857 1675.21 829.098 1670.44 807.054C1668.66 798.797 1662.69 794.765 1653.65 795.701C1648.24 796.262 1643.28 798.448 1640.81 799.702C1640.27 799.971 1639.79 800.231 1639.33 800.485C1640.02 792.165 1642.63 776.618 1652.38 766.781C1658.53 760.588 1666.7 757.53 1676.67 757.695C1696.3 758.016 1708.89 768.092 1716 776.488C1722.12 783.723 1725.44 791.012 1726.76 794.943C1716.81 793.931 1710.04 795.895 1706.61 800.799C1699.15 811.468 1710.69 832.175 1716.24 842.127C1717.26 843.951 1718.14 845.527 1718.41 846.197C1720.22 850.577 1722.56 853.501 1724.27 855.635C1724.79 856.289 1725.3 856.923 1725.69 857.477C1722.67 858.346 1717.26 860.354 1717.75 870.388C1717.36 875.423 1714.53 898.996 1713.09 907.325C1711.19 918.328 1707.14 922.426 1695.76 924.867V924.867ZM1745.03 868.487C1741.94 869.917 1736.79 870.99 1731.89 871.221C1726.48 871.474 1723.72 870.614 1723.07 870.086C1722.77 863.832 1725.1 863.179 1727.56 862.488C1727.95 862.379 1728.32 862.273 1728.69 862.145C1728.92 862.33 1729.16 862.513 1729.44 862.692C1733.79 865.563 1741.54 865.872 1752.49 863.612L1752.61 863.588C1751.14 864.969 1748.61 866.822 1745.03 868.487Z" fill="white"/>
<g clip-path="url(#clip7_57_5)">
<path fill-rule="evenodd" clip-rule="evenodd" d="M1751.81 273.669L1696.98 157.221C1696.3 155.788 1695.24 154.565 1693.92 153.683C1692.6 152.801 1691.07 152.292 1689.49 152.21C1687.9 152.104 1686.31 152.435 1684.9 153.167C1683.49 153.9 1682.3 155.005 1681.47 156.364L1622 252.691C1621.1 254.146 1620.62 255.828 1620.64 257.541C1620.66 259.253 1621.17 260.925 1622.1 262.361L1651.18 307.39C1652.28 309.08 1653.89 310.369 1655.79 311.065C1657.68 311.761 1659.75 311.827 1661.68 311.252L1746.06 286.292C1747.33 285.921 1748.51 285.281 1749.51 284.416C1750.51 283.551 1751.32 282.481 1751.87 281.278C1752.41 280.081 1752.69 278.781 1752.68 277.466C1752.67 276.151 1752.38 274.854 1751.82 273.665L1751.81 273.669ZM1739.54 278.663L1667.93 299.836C1665.75 300.486 1663.65 298.593 1664.11 296.389L1689.69 173.898C1690.17 171.606 1693.33 171.243 1694.33 173.364L1741.69 273.928C1741.9 274.376 1742.01 274.864 1742.01 275.359C1742.01 275.854 1741.91 276.343 1741.7 276.793C1741.5 277.243 1741.2 277.643 1740.82 277.966C1740.45 278.289 1740.01 278.527 1739.54 278.663Z" fill="black"/>
</g>
<path d="M1869.23 494.292L1874.28 503.777C1875.41 505.527 1876.64 507.076 1878.09 508.519C1882.34 512.713 1886.3 517.189 1889.94 521.917C1898.5 533.151 1904.27 545.627 1908.39 559.12C1910.86 567.363 1912.2 575.818 1912.3 584.368C1912.72 609.929 1903.95 631.877 1886.29 650.118C1883.41 653.01 1880.31 655.664 1877 658.053C1875.25 658.053 1874.43 656.711 1873.71 655.475C1872.39 653.183 1871.52 650.667 1871.13 648.054C1870.51 644.962 1870.1 641.869 1870.3 638.677V637.234C1870.16 636.926 1868.61 495.02 1869.23 494.292Z" fill="#599636"/>
<path d="M1869.23 493.979C1869.02 493.565 1868.82 493.879 1868.61 494.08C1868.71 496.149 1867.99 497.994 1866.86 499.756C1865.62 501.506 1863.97 502.848 1862.32 504.291C1853.16 512.226 1845.94 521.811 1840.17 532.531C1832.48 546.958 1828.52 562.42 1827.4 578.698C1826.88 584.569 1829.25 605.287 1831.1 611.265C1836.15 627.135 1845.22 640.433 1856.97 651.975C1859.86 654.754 1862.94 657.332 1866.14 659.809C1867.06 659.809 1867.17 658.981 1867.38 658.366C1867.79 657.05 1868.1 655.707 1868.31 654.346L1870.38 638.89L1869.23 493.979Z" fill="#6CAC48"/>
<path d="M1874.28 664.332C1874.49 661.967 1875.62 660.004 1876.86 658.047C1875.61 657.532 1874.69 656.509 1873.97 655.368C1873.35 654.288 1872.83 653.149 1872.43 651.968C1870.99 647.64 1870.68 643.099 1870.27 638.677V635.998C1869.76 636.412 1869.65 639.912 1869.65 640.433C1869.35 645.107 1868.73 649.756 1867.79 654.345C1867.48 656.202 1867.28 658.053 1866.14 659.702C1866.14 659.909 1866.14 660.116 1866.24 660.424C1868.09 665.887 1868.6 671.451 1868.92 677.121V679.191C1868.92 681.662 1868.82 681.142 1870.87 681.97C1871.69 682.277 1872.62 682.384 1873.44 682.999C1874.07 682.999 1874.17 682.484 1874.17 682.07L1873.86 678.671V669.186C1873.76 667.531 1874.07 665.887 1874.27 664.338L1874.28 664.332Z" fill="#C2BFBF"/>
<path d="M102.142 666.347L99.0036 582.73C98.9 579.968 101.017 577.628 103.776 577.455L174.898 573.01C177.705 572.835 180.123 574.968 180.299 577.776C180.305 577.881 180.309 577.987 180.309 578.093V669.209C180.309 672.022 178.028 674.302 175.216 674.302C175.139 674.302 175.063 674.301 174.987 674.297L107.003 671.244C104.355 671.125 102.241 668.995 102.142 666.347Z" fill="#FF4785"/>
<mask id="mask1_57_5" style="mask-type:luminance" maskUnits="userSpaceOnUse" x="99" y="573" width="82" height="102">
<path d="M102.142 666.347L99.0036 582.73C98.9 579.968 101.017 577.628 103.776 577.455L174.898 573.01C177.705 572.835 180.123 574.968 180.299 577.776C180.305 577.881 180.309 577.987 180.309 578.093V669.209C180.309 672.022 178.028 674.302 175.216 674.302C175.139 674.302 175.063 674.301 174.987 674.297L107.003 671.244C104.355 671.125 102.241 668.995 102.142 666.347Z" fill="white"/>
</mask>
<g mask="url(#mask1_57_5)">
<path d="M159.04 585.452L159.526 573.767L169.293 573L169.714 585.05C169.729 585.469 169.4 585.821 168.981 585.835C168.802 585.842 168.626 585.784 168.484 585.673L164.718 582.706L160.258 586.089C159.924 586.342 159.447 586.277 159.194 585.942C159.087 585.802 159.033 585.628 159.04 585.452ZM146.549 611.182C146.549 613.164 159.896 612.214 161.688 610.822C161.688 597.328 154.448 590.237 141.189 590.237C127.93 590.237 120.502 597.439 120.502 608.24C120.502 627.053 145.891 627.413 145.891 637.675C145.891 640.556 144.48 642.266 141.377 642.266C137.334 642.266 135.735 640.201 135.923 633.18C135.923 631.657 120.502 631.182 120.031 633.18C118.834 650.195 129.435 655.102 141.565 655.102C153.319 655.102 162.534 648.837 162.534 637.495C162.534 617.332 136.769 617.872 136.769 607.88C136.769 603.83 139.778 603.29 141.565 603.29C143.446 603.29 146.831 603.621 146.549 611.182Z" fill="white"/>
</g>
<g clip-path="url(#clip8_57_5)">
<path d="M843.59 188.136C838.756 183.718 837.345 174.433 839.358 167.707C842.85 171.948 847.689 173.291 852.701 174.05C860.438 175.22 868.036 174.782 875.223 171.246C876.046 170.841 876.805 170.303 877.704 169.757C878.378 171.714 878.554 173.689 878.318 175.699C877.745 180.596 875.309 184.378 871.433 187.245C869.884 188.391 868.244 189.417 866.643 190.498C861.726 193.821 860.396 197.718 862.244 203.386C862.288 203.525 862.327 203.663 862.426 204C859.916 202.876 858.082 201.24 856.685 199.089C855.209 196.819 854.507 194.308 854.47 191.591C854.451 190.268 854.451 188.934 854.273 187.631C853.839 184.453 852.347 183.03 849.537 182.948C846.652 182.863 844.37 184.647 843.765 187.455C843.719 187.671 843.652 187.884 843.585 188.134L843.59 188.136Z" fill="white"/>
<path d="M843.59 188.136C838.756 183.718 837.345 174.433 839.358 167.707C842.85 171.948 847.689 173.291 852.701 174.05C860.438 175.22 868.036 174.782 875.223 171.246C876.046 170.841 876.805 170.303 877.704 169.757C878.378 171.714 878.554 173.689 878.318 175.699C877.745 180.596 875.309 184.378 871.433 187.245C869.884 188.391 868.244 189.417 866.643 190.498C861.726 193.821 860.396 197.718 862.244 203.386C862.288 203.525 862.327 203.663 862.426 204C859.916 202.876 858.082 201.24 856.685 199.089C855.209 196.819 854.507 194.308 854.47 191.591C854.451 190.268 854.451 188.934 854.273 187.631C853.839 184.453 852.347 183.03 849.537 182.948C846.652 182.863 844.37 184.647 843.765 187.455C843.719 187.671 843.652 187.884 843.585 188.134L843.59 188.136Z" fill="url(#paint0_linear_57_5)"/>
<path d="M816 166.587C816 166.587 830.314 159.614 844.668 159.614L855.49 126.12C855.895 124.501 857.078 123.4 858.414 123.4C859.749 123.4 860.932 124.501 861.338 126.12L872.16 159.614C889.16 159.614 900.828 166.587 900.828 166.587C900.828 166.587 876.514 100.352 876.467 100.219C875.769 98.2612 874.591 97 873.003 97H843.827C842.239 97 841.109 98.2612 840.363 100.219C840.311 100.35 816 166.587 816 166.587Z" fill="#17191E"/>
</g>
</g>
<defs>
<filter id="filter0_d_57_5" x="439" y="53" width="273" height="275" filterUnits="userSpaceOnUse" color-interpolation-filters="sRGB">
<feFlood flood-opacity="0" result="BackgroundImageFix"/>
<feColorMatrix in="SourceAlpha" type="matrix" values="0 0 0 0 0 0 0 0 0 0 0 0 0 0 0 0 0 0 127 0" result="hardAlpha"/>
<feOffset dx="4" dy="6"/>
<feGaussianBlur stdDeviation="2"/>
<feComposite in2="hardAlpha" operator="out"/>
<feColorMatrix type="matrix" values="0 0 0 0 0 0 0 0 0 0 0 0 0 0 0 0 0 0 0.25 0"/>
<feBlend mode="normal" in2="BackgroundImageFix" result="effect1_dropShadow_57_5"/>
<feBlend mode="normal" in="SourceGraphic" in2="effect1_dropShadow_57_5" result="shape"/>
</filter>
<filter id="filter1_d_57_5" x="1070" y="-44" width="382" height="384" filterUnits="userSpaceOnUse" color-interpolation-filters="sRGB">
<feFlood flood-opacity="0" result="BackgroundImageFix"/>
<feColorMatrix in="SourceAlpha" type="matrix" values="0 0 0 0 0 0 0 0 0 0 0 0 0 0 0 0 0 0 127 0" result="hardAlpha"/>
<feOffset dx="4" dy="6"/>
<feGaussianBlur stdDeviation="2"/>
<feComposite in2="hardAlpha" operator="out"/>
<feColorMatrix type="matrix" values="0 0 0 0 0 0 0 0 0 0 0 0 0 0 0 0 0 0 0.25 0"/>
<feBlend mode="normal" in2="BackgroundImageFix" result="effect1_dropShadow_57_5"/>
<feBlend mode="normal" in="SourceGraphic" in2="effect1_dropShadow_57_5" result="shape"/>
</filter>
<filter id="filter2_d_57_5" x="601" y="674" width="329" height="331" filterUnits="userSpaceOnUse" color-interpolation-filters="sRGB">
<feFlood flood-opacity="0" result="BackgroundImageFix"/>
<feColorMatrix in="SourceAlpha" type="matrix" values="0 0 0 0 0 0 0 0 0 0 0 0 0 0 0 0 0 0 127 0" result="hardAlpha"/>
<feOffset dx="4" dy="6"/>
<feGaussianBlur stdDeviation="2"/>
<feComposite in2="hardAlpha" operator="out"/>
<feColorMatrix type="matrix" values="0 0 0 0 0 0 0 0 0 0 0 0 0 0 0 0 0 0 0.25 0"/>
<feBlend mode="normal" in2="BackgroundImageFix" result="effect1_dropShadow_57_5"/>
<feBlend mode="normal" in="SourceGraphic" in2="effect1_dropShadow_57_5" result="shape"/>
</filter>
<filter id="filter3_d_57_5" x="283" y="615" width="271.333" height="274.417" filterUnits="userSpaceOnUse" color-interpolation-filters="sRGB">
<feFlood flood-opacity="0" result="BackgroundImageFix"/>
<feColorMatrix in="SourceAlpha" type="matrix" values="0 0 0 0 0 0 0 0 0 0 0 0 0 0 0 0 0 0 127 0" result="hardAlpha"/>
<feOffset dx="6.16667" dy="9.25"/>
<feGaussianBlur stdDeviation="3.08333"/>
<feComposite in2="hardAlpha" operator="out"/>
<feColorMatrix type="matrix" values="0 0 0 0 0 0 0 0 0 0 0 0 0 0 0 0 0 0 0.25 0"/>
<feBlend mode="normal" in2="BackgroundImageFix" result="effect1_dropShadow_57_5"/>
<feBlend mode="normal" in="SourceGraphic" in2="effect1_dropShadow_57_5" result="shape"/>
</filter>
<filter id="filter4_d_57_5" x="56" y="540" width="176" height="178" filterUnits="userSpaceOnUse" color-interpolation-filters="sRGB">
<feFlood flood-opacity="0" result="BackgroundImageFix"/>
<feColorMatrix in="SourceAlpha" type="matrix" values="0 0 0 0 0 0 0 0 0 0 0 0 0 0 0 0 0 0 127 0" result="hardAlpha"/>
<feOffset dx="4" dy="6"/>
<feGaussianBlur stdDeviation="2"/>
<feComposite in2="hardAlpha" operator="out"/>
<feColorMatrix type="matrix" values="0 0 0 0 0 0 0 0 0 0 0 0 0 0 0 0 0 0 0.25 0"/>
<feBlend mode="normal" in2="BackgroundImageFix" result="effect1_dropShadow_57_5"/>
<feBlend mode="normal" in="SourceGraphic" in2="effect1_dropShadow_57_5" result="shape"/>
</filter>
<filter id="filter5_d_57_5" x="1023" y="733" width="196" height="198" filterUnits="userSpaceOnUse" color-interpolation-filters="sRGB">
<feFlood flood-opacity="0" result="BackgroundImageFix"/>
<feColorMatrix in="SourceAlpha" type="matrix" values="0 0 0 0 0 0 0 0 0 0 0 0 0 0 0 0 0 0 127 0" result="hardAlpha"/>
<feOffset dx="4" dy="6"/>
<feGaussianBlur stdDeviation="2"/>
<feComposite in2="hardAlpha" operator="out"/>
<feColorMatrix type="matrix" values="0 0 0 0 0 0 0 0 0 0 0 0 0 0 0 0 0 0 0.25 0"/>
<feBlend mode="normal" in2="BackgroundImageFix" result="effect1_dropShadow_57_5"/>
<feBlend mode="normal" in="SourceGraphic" in2="effect1_dropShadow_57_5" result="shape"/>
</filter>
<filter id="filter6_d_57_5" x="87" y="797" width="159.049" height="160.311" filterUnits="userSpaceOnUse" color-interpolation-filters="sRGB">
<feFlood flood-opacity="0" result="BackgroundImageFix"/>
<feColorMatrix in="SourceAlpha" type="matrix" values="0 0 0 0 0 0 0 0 0 0 0 0 0 0 0 0 0 0 127 0" result="hardAlpha"/>
<feOffset dx="2.52459" dy="3.78689"/>
<feGaussianBlur stdDeviation="1.2623"/>
<feComposite in2="hardAlpha" operator="out"/>
<feColorMatrix type="matrix" values="0 0 0 0 0 0 0 0 0 0 0 0 0 0 0 0 0 0 0.25 0"/>
<feBlend mode="normal" in2="BackgroundImageFix" result="effect1_dropShadow_57_5"/>
<feBlend mode="normal" in="SourceGraphic" in2="effect1_dropShadow_57_5" result="shape"/>
</filter>
<filter id="filter7_d_57_5" x="1558" y="428" width="166" height="168" filterUnits="userSpaceOnUse" color-interpolation-filters="sRGB">
<feFlood flood-opacity="0" result="BackgroundImageFix"/>
<feColorMatrix in="SourceAlpha" type="matrix" values="0 0 0 0 0 0 0 0 0 0 0 0 0 0 0 0 0 0 127 0" result="hardAlpha"/>
<feOffset dx="4" dy="6"/>
<feGaussianBlur stdDeviation="2"/>
<feComposite in2="hardAlpha" operator="out"/>
<feColorMatrix type="matrix" values="0 0 0 0 0 0 0 0 0 0 0 0 0 0 0 0 0 0 0.25 0"/>
<feBlend mode="normal" in2="BackgroundImageFix" result="effect1_dropShadow_57_5"/>
<feBlend mode="normal" in="SourceGraphic" in2="effect1_dropShadow_57_5" result="shape"/>
</filter>
<filter id="filter8_d_57_5" x="224" y="28" width="166" height="168" filterUnits="userSpaceOnUse" color-interpolation-filters="sRGB">
<feFlood flood-opacity="0" result="BackgroundImageFix"/>
<feColorMatrix in="SourceAlpha" type="matrix" values="0 0 0 0 0 0 0 0 0 0 0 0 0 0 0 0 0 0 127 0" result="hardAlpha"/>
<feOffset dx="4" dy="6"/>
<feGaussianBlur stdDeviation="2"/>
<feComposite in2="hardAlpha" operator="out"/>
<feColorMatrix type="matrix" values="0 0 0 0 0 0 0 0 0 0 0 0 0 0 0 0 0 0 0.25 0"/>
<feBlend mode="normal" in2="BackgroundImageFix" result="effect1_dropShadow_57_5"/>
<feBlend mode="normal" in="SourceGraphic" in2="effect1_dropShadow_57_5" result="shape"/>
</filter>
<filter id="filter9_d_57_5" x="780" y="64" width="166" height="168" filterUnits="userSpaceOnUse" color-interpolation-filters="sRGB">
<feFlood flood-opacity="0" result="BackgroundImageFix"/>
<feColorMatrix in="SourceAlpha" type="matrix" values="0 0 0 0 0 0 0 0 0 0 0 0 0 0 0 0 0 0 127 0" result="hardAlpha"/>
<feOffset dx="4" dy="6"/>
<feGaussianBlur stdDeviation="2"/>
<feComposite in2="hardAlpha" operator="out"/>
<feColorMatrix type="matrix" values="0 0 0 0 0 0 0 0 0 0 0 0 0 0 0 0 0 0 0.25 0"/>
<feBlend mode="normal" in2="BackgroundImageFix" result="effect1_dropShadow_57_5"/>
<feBlend mode="normal" in="SourceGraphic" in2="effect1_dropShadow_57_5" result="shape"/>
</filter>
<filter id="filter10_d_57_5" x="1518" y="686" width="317" height="319" filterUnits="userSpaceOnUse" color-interpolation-filters="sRGB">
<feFlood flood-opacity="0" result="BackgroundImageFix"/>
<feColorMatrix in="SourceAlpha" type="matrix" values="0 0 0 0 0 0 0 0 0 0 0 0 0 0 0 0 0 0 127 0" result="hardAlpha"/>
<feOffset dx="4" dy="6"/>
<feGaussianBlur stdDeviation="2"/>
<feComposite in2="hardAlpha" operator="out"/>
<feColorMatrix type="matrix" values="0 0 0 0 0 0 0 0 0 0 0 0 0 0 0 0 0 0 0.25 0"/>
<feBlend mode="normal" in2="BackgroundImageFix" result="effect1_dropShadow_57_5"/>
<feBlend mode="normal" in="SourceGraphic" in2="effect1_dropShadow_57_5" result="shape"/>
</filter>
<filter id="filter11_d_57_5" x="1757" y="459" width="252" height="254" filterUnits="userSpaceOnUse" color-interpolation-filters="sRGB">
<feFlood flood-opacity="0" result="BackgroundImageFix"/>
<feColorMatrix in="SourceAlpha" type="matrix" values="0 0 0 0 0 0 0 0 0 0 0 0 0 0 0 0 0 0 127 0" result="hardAlpha"/>
<feOffset dx="4" dy="6"/>
<feGaussianBlur stdDeviation="2"/>
<feComposite in2="hardAlpha" operator="out"/>
<feColorMatrix type="matrix" values="0 0 0 0 0 0 0 0 0 0 0 0 0 0 0 0 0 0 0.25 0"/>
<feBlend mode="normal" in2="BackgroundImageFix" result="effect1_dropShadow_57_5"/>
<feBlend mode="normal" in="SourceGraphic" in2="effect1_dropShadow_57_5" result="shape"/>
</filter>
<filter id="filter12_d_57_5" x="1258" y="591" width="252" height="254" filterUnits="userSpaceOnUse" color-interpolation-filters="sRGB">
<feFlood flood-opacity="0" result="BackgroundImageFix"/>
<feColorMatrix in="SourceAlpha" type="matrix" values="0 0 0 0 0 0 0 0 0 0 0 0 0 0 0 0 0 0 127 0" result="hardAlpha"/>
<feOffset dx="4" dy="6"/>
<feGaussianBlur stdDeviation="2"/>
<feComposite in2="hardAlpha" operator="out"/>
<feColorMatrix type="matrix" values="0 0 0 0 0 0 0 0 0 0 0 0 0 0 0 0 0 0 0.25 0"/>
<feBlend mode="normal" in2="BackgroundImageFix" result="effect1_dropShadow_57_5"/>
<feBlend mode="normal" in="SourceGraphic" in2="effect1_dropShadow_57_5" result="shape"/>
</filter>
<filter id="filter13_d_57_5" x="-58" y="168" width="307" height="309" filterUnits="userSpaceOnUse" color-interpolation-filters="sRGB">
<feFlood flood-opacity="0" result="BackgroundImageFix"/>
<feColorMatrix in="SourceAlpha" type="matrix" values="0 0 0 0 0 0 0 0 0 0 0 0 0 0 0 0 0 0 127 0" result="hardAlpha"/>
<feOffset dx="4" dy="6"/>
<feGaussianBlur stdDeviation="2"/>
<feComposite in2="hardAlpha" operator="out"/>
<feColorMatrix type="matrix" values="0 0 0 0 0 0 0 0 0 0 0 0 0 0 0 0 0 0 0.25 0"/>
<feBlend mode="normal" in2="BackgroundImageFix" result="effect1_dropShadow_57_5"/>
<feBlend mode="normal" in="SourceGraphic" in2="effect1_dropShadow_57_5" result="shape"/>
</filter>
<filter id="filter14_d_57_5" x="1566" y="110" width="252" height="254" filterUnits="userSpaceOnUse" color-interpolation-filters="sRGB">
<feFlood flood-opacity="0" result="BackgroundImageFix"/>
<feColorMatrix in="SourceAlpha" type="matrix" values="0 0 0 0 0 0 0 0 0 0 0 0 0 0 0 0 0 0 127 0" result="hardAlpha"/>
<feOffset dx="4" dy="6"/>
<feGaussianBlur stdDeviation="2"/>
<feComposite in2="hardAlpha" operator="out"/>
<feColorMatrix type="matrix" values="0 0 0 0 0 0 0 0 0 0 0 0 0 0 0 0 0 0 0.25 0"/>
<feBlend mode="normal" in2="BackgroundImageFix" result="effect1_dropShadow_57_5"/>
<feBlend mode="normal" in="SourceGraphic" in2="effect1_dropShadow_57_5" result="shape"/>
</filter>
<linearGradient id="paint0_linear_57_5" x1="838.47" y1="204" x2="885.145" y2="181.947" gradientUnits="userSpaceOnUse">
<stop stop-color="#D83333"/>
<stop offset="1" stop-color="#F041FF"/>
</linearGradient>
<clipPath id="clip0_57_5">
<rect width="1080" height="1920" fill="white" transform="matrix(0 -1 1 0 0 1080)"/>
</clipPath>
<clipPath id="clip1_57_5">
<rect width="206.864" height="126.417" fill="white" transform="translate(309.208 681.292)"/>
</clipPath>
<clipPath id="clip2_57_5">
<rect width="219" height="219" fill="white" transform="translate(-18 208)"/>
</clipPath>
<clipPath id="clip3_57_5">
<rect width="100.046" height="114" fill="white" transform="translate(1587 450)"/>
</clipPath>
<clipPath id="clip4_57_5">
<rect width="157" height="157" fill="white" transform="translate(1301 634)"/>
</clipPath>
<clipPath id="clip5_57_5">
<rect width="129" height="193.461" fill="white" transform="translate(507 89)"/>
</clipPath>
<clipPath id="clip6_57_5">
<rect width="77.04" height="104.108" fill="white" transform="translate(264 55)"/>
</clipPath>
<clipPath id="clip7_57_5">
<rect width="132" height="161.212" fill="white" transform="translate(1622 151)"/>
</clipPath>
<clipPath id="clip8_57_5">
<rect width="85" height="107" fill="white" transform="translate(816 97)"/>
</clipPath>
</defs>
</svg>
