<svg width="256" height="256" viewBox="0 0 256 256" fill="none" xmlns="http://www.w3.org/2000/svg">
<rect width="256" height="256" rx="128" fill="#F6F6F6"/>
<path fill-rule="evenodd" clip-rule="evenodd" d="M83.2193 65.5802C83.2193 62.2683 76.9216 59.7882 73.6097 59.7882C70.2978 59.7882 64.0001 62.2683 64.0001 65.5802V218.955C64.0001 222.243 70.5906 224.817 73.8792 224.817C77.198 224.817 83.2193 222.42 83.2193 219.101V65.5802Z" fill="#333333"/>
<path fill-rule="evenodd" clip-rule="evenodd" d="M138.891 168.056C172.044 168.056 198.919 141.181 198.919 108.028C198.919 74.8756 172.044 48.0001 138.891 48.0001C105.739 48.0001 78.8634 74.8756 78.8634 108.028C78.8634 141.181 105.739 168.056 138.891 168.056ZM181.414 103.243C181.414 119.499 169.667 133.026 154.154 135.889C159.838 129.935 163.325 121.888 163.325 113.031C163.325 94.6925 148.376 79.8264 129.935 79.8264C127.841 79.8264 125.792 80.018 123.805 80.3847C129.889 74.012 138.49 70.0383 148.024 70.0383C166.465 70.0383 181.414 84.9044 181.414 103.243ZM123.805 80.3847C108.292 83.2473 96.5448 96.7748 96.5448 113.031C96.5448 131.369 111.494 146.235 129.935 146.235C139.469 146.235 148.07 142.261 154.154 135.889C152.167 136.255 150.118 136.447 148.024 136.447C129.583 136.447 114.634 121.581 114.634 103.243C114.634 94.3854 118.121 86.3382 123.805 80.3847Z" fill="#333333"/>
<path fill-rule="evenodd" clip-rule="evenodd" d="M138.891 168.056C172.044 168.056 198.919 141.181 198.919 108.028C198.919 74.8756 172.044 48.0001 138.891 48.0001C105.739 48.0001 78.8634 74.8756 78.8634 108.028C78.8634 141.181 105.739 168.056 138.891 168.056ZM181.414 103.243C181.414 119.499 169.667 133.026 154.154 135.889C159.838 129.935 163.325 121.888 163.325 113.031C163.325 94.6925 148.376 79.8264 129.935 79.8264C127.841 79.8264 125.792 80.018 123.805 80.3847C129.889 74.012 138.49 70.0383 148.024 70.0383C166.465 70.0383 181.414 84.9044 181.414 103.243ZM123.805 80.3847C108.292 83.2473 96.5448 96.7748 96.5448 113.031C96.5448 131.369 111.494 146.235 129.935 146.235C139.469 146.235 148.07 142.261 154.154 135.889C152.167 136.255 150.118 136.447 148.024 136.447C129.583 136.447 114.634 121.581 114.634 103.243C114.634 94.3854 118.121 86.3382 123.805 80.3847Z" fill="#333333"/>
</svg>
